# xmcd
#
# Track frame offsets:
#	150
#	22266
#	34589
#	51195
#	69383
#	87871
#	104701
#	121773
#	139717
#	162006
#	179204
#	192961
#	211542
#	230165
#
# Disc length: 3304 seconds
#
# Revision: 0
# Processed by: cddbd v1.5.2PL0 Copyright (c) Steve Scherf et al.
# Submitted via: audiograbber 1.83.01
#
DISCID=c40ce60e
DTITLE=Chitãozinho and Xororó - De Coração para Coração Vol 2
DYEAR=2008
DGENRE=Country
TTITLE0=Evidencias
TTITLE1=Amante
TTITLE2=Terra Tombada
TTITLE3=Brincar de Ser Feliz
TTITLE4=Colcha de Retalhos
TTITLE5=Frete
TTITLE6=Asa Branca
TTITLE7=Tristeza do Jeca
TTITLE8=O Homem de Nazareth
TTITLE9=O Rio
TTITLE10=Quem é Você
TTITLE11=Coração Vazio
TTITLE12=Foge de Mim
TTITLE13=O Último Julgamento
EXTD=
EXTT0=
EXTT1=
EXTT2=
EXTT3=
EXTT4=
EXTT5=
EXTT6=
EXTT7=
EXTT8=
EXTT9=
EXTT10=
EXTT11=
EXTT12=
EXTT13=
PLAYORDER=
